.
..............................Site Info...........................

 -   http://www.scenetime.com  *_*    

Scenetime .Always on time . friendly online private torrent community ..

     We care to share . Join us on  http://www.scenetime.com 

    Be the first to get new release at  http://www.scenetime.com

        Seed back for speed


...................................NFO:.................................................[IMG]http://img855.imageshack.us/img855/7934/thethompsons2012.jpg[/IMG]


[color=blue][size=4][b]The.Thompsons.2012.DVDRip.XVID.AC3.HQ.Hive-CM8[/b][/size][/color]


[b]Thx Hive

CM8 Doing It Right The First Time :D


Source: DVDR Legend-Rg
thx

Encode:
dvd was ok, just low bitrate, but nice
did the usual
got nice
enjoy

Video: 720x304 @bitrate 1700 2pass
Audio: English AC3 5.1 @256 (as on source)
Sample: Yes, included[/b]
 
http://www.imdb.com/title/tt1831806/


General
Complete name                  : The.Thompsons.2012.DVDRip.XVID.AC3.HQ.Hive-CM8.avi
Format                         : AVI
Format/Info                    : Audio Video Interleave
File size                      : 1.06 GiB
Duration                       : 1h 17mn
Overall bit rate               : 1 965 Kbps
Writing application            : Nandub v1.0rc2
Writing library                : Nandub build 1853/release

Video
ID                             : 0
Format                         : MPEG-4 Visual
Format profile                 : Advanced Simple@L5
Format settings, BVOP          : 2
Format settings, QPel          : Yes
Format settings, GMC           : No warppoints
Format settings, Matrix        : Default (H.263)
Muxing mode                    : Packed bitstream
Codec ID                       : XVID
Codec ID/Hint                  : XviD
Duration                       : 1h 17mn
Bit rate                       : 1 700 Kbps
Width                          : 720 pixels
Height                         : 304 pixels
Display aspect ratio           : 2.35:1
Frame rate                     : 25.000 fps
Color space                    : YUV
Chroma subsampling             : 4:2:0
Bit depth                      : 8 bits
Scan type                      : Progressive
Compression mode               : Lossy
Bits/(Pixel*Frame)             : 0.311
Stream size                    : 942 MiB (86%)
Writing library                : XviD 1.2.1 (UTC 2008-12-04)

Audio
ID                             : 1
Format                         : AC-3
Format/Info                    : Audio Coding 3
Mode extension                 : CM (complete main)
Format settings, Endianness    : Big
Codec ID                       : 2000
Duration                       : 1h 17mn
Bit rate mode                  : Constant
Bit rate                       : 256 Kbps
Channel(s)                     : 6 channels
Channel positions              : Front: L C R, Side: L R, LFE
Sampling rate                  : 48.0 KHz
Bit depth                      : 16 bits
Compression mode               : Lossy
Stream size                    : 142 MiB (13%)
Alignment                      : Split accross interleaves
Interleave, duration           : 40 ms (1.00 video frame)
Interleave, preload duration   : 500 ms


Plot:
On the run with the law on their trail, America's most anguished vampire family
heads to England to find an ancient vampire clan. What they find instead could
tear their family, and their throats, apart forever.


Cast:
Mackenzie Firgens     ...     Darlene Hamilton
Elizabeth Henstridge  ...     Riley Stuart
Cory Knauf            ...     Francis Hamilton


[img]http://img853.imageshack.us/img853/9503/ttttub.png[/img]
[img]http://img211.imageshack.us/img211/3590/tttttti.png[/img]
[img]http://img12.imageshack.us/img12/9638/ttttttttx.png[/img]
[img]http://img211.imageshack.us/img211/9918/tttttttttt.png[/img]
[img]http://img404.imageshack.us/img404/455/74467710.png[/img]



Greetz

ViSiON,SPK,SceneLovers,PRESTiGE,SANTi,3LT0N,YanKeeS,COPYxRIGHT,THC,T0XiC
D2U,LKRG,ADTRG,Feel-Free,KoDeKinG,FLAWL3SS,WBZ,BHRG,26K,NOVA,MAGNET
Unevano,BigVik,Rapeseed,SAFC,TED,goldadvance,KaN1vE,Pinnz,Wayne
Mr Hive,jtr,Limey,ICONiK,SeeN and most P2P groups
Great Work Guys :D

LOOKING FOR ANYTHING YOU WANT TO LOOK AND SOUND BETTER

CM8@hushmail.com